{
  "accessors": [
    {
      "bufferView": 2,
      "componentType": 5126,
      "count": 65532,
      "max": [
        3.5700550079345703,
        7.239535808563232,
        2.0824790000915527
      ],
      "min": [
        3.1699090003967285,
        4.522512912750244,
        -0.9208800196647644
      ],
      "type": "VEC3"
    },
    {
      "bufferView": 2,
      "byteOffset": 786384,
      "componentType": 5126,
      "count": 65532,
      "max": [
        1.0,
        0.9999402165412903,
        0.9996474981307983
      ],
      "min": [
        -0.9999947547912598,
        -0.9998973608016968,
        -0.9999903440475464
      ],
      "type": "VEC3"
    },
    {
      "bufferView": 3,
      "componentType": 5126,
      "count": 65532,
      "max": [
        0.6235294342041016,
        0.6078431606292725,
        0.6039215922355652,
        1.0
      ],
      "min": [
        0.01568627543747425,
        0.01568627543747425,
        0.0117647061124444,
        1.0
      ],
      "type": "VEC4"
    },
    {
      "bufferView": 1,
      "componentType": 5126,
      "count": 65532,
      "max": [
        0.9980310201644897,
        0.999970018863678
      ],
      "min": [
        0.00014699999883305281,
        3.000000106112566e-06
      ],
      "type": "VEC2"
    },
    {
      "bufferView": 0,
      "componentType": 5125,
      "count": 333276,
      "type": "SCALAR"
    },
    {
      "bufferView": 2,
      "byteOffset": 1572768,
      "componentType": 5126,
      "count": 65532,
      "max": [
        3.569814920425415,
        7.239374160766602,
        2.0771780014038086
      ],
      "min": [
        -1.4564130306243896,
        4.397902011871338,
        -1.394186019897461
      ],
      "type": "VEC3"
    },
    {
      "bufferView": 2,
      "byteOffset": 2359152,
      "componentType": 5126,
      "count": 65532,
      "max": [
        0.9999988675117493,
        0.9998247623443604,
        0.9962717890739441
      ],
      "min": [
        -0.9999953508377075,
        -0.99991774559021,
        -0.9996843338012695
      ],
      "type": "VEC3"
    },
    {
      "bufferView": 3,
      "byteOffset": 1048512,
      "componentType": 5126,
      "count": 65532,
      "max": [
        0.8784313797950745,
        0.8509804010391235,
        0.8156862854957581,
        1.0
      ],
      "min": [
        0.07058823853731155,
        0.06666667014360428,
        0.05098039284348488,
        1.0
      ],
      "type": "VEC4"
    },
    {
      "bufferView": 1,
      "byteOffset": 524256,
      "componentType": 5126,
      "count": 65532,
      "max": [
        0.9980189800262451,
        0.999983012676239
      ],
      "min": [
        0.0025130000431090593,
        5.999999848427251e-05
      ],
      "type": "VEC2"
    },
    {
      "bufferView": 0,
      "byteOffset": 1333104,
      "componentType": 5125,
      "count": 319323,
      "type": "SCALAR"
    },
    {
      "bufferView": 2,
      "byteOffset": 3145536,
      "componentType": 5126,
      "count": 65532,
      "max": [
        3.018502950668335,
        7.524016857147217,
        1.5905810594558716
      ],
      "min": [
        -1.4098559617996216,
        4.342031955718994,
        -1.5373469591140747
      ],
      "type": "VEC3"
    },
    {
      "bufferView": 2,
      "byteOffset": 3931920,
      "componentType": 5126,
      "count": 65532,
      "max": [
        0.9999807476997375,
        0.9999893307685852,
        0.999883770942688
      ],
      "min": [
        -0.9999902248382568,
        -0.999995768070221,
        -0.9999814629554749
      ],
      "type": "VEC3"
    },
    {
      "bufferView": 3,
      "byteOffset": 2097024,
      "componentType": 5126,
      "count": 65532,
      "max": [
        0.8980392217636108,
        0.8745098114013672,
        0.8509804010391235,
        1.0
      ],
      "min": [
        0.0,
        0.0,
        0.0,
        1.0
      ],
      "type": "VEC4"
    },
    {
      "bufferView": 1,
      "byteOffset": 1048512,
      "componentType": 5126,
      "count": 65532,
      "max": [
        0.897849977016449,
        0.8484600186347961
      ],
      "min": [
        0.026600999757647514,
        4.70000013592653e-05
      ],
      "type": "VEC2"
    },
    {
      "bufferView": 0,
      "byteOffset": 2610396,
      "componentType": 5125,
      "count": 361950,
      "type": "SCALAR"
    },
    {
      "bufferView": 2,
      "byteOffset": 4718304,
      "componentType": 5126,
      "count": 65532,
      "max": [
        3.5133628845214844,
        7.491150856018066,
        1.7172000408172607
      ],
      "min": [
        -0.9335070252418518,
        4.332874774932861,
        -0.9574310183525085
      ],
      "type": "VEC3"
    },
    {
      "bufferView": 2,
      "byteOffset": 5504688,
      "componentType": 5126,
      "count": 65532,
      "max": [
        0.998489260673523,
        0.999945878982544,
        0.9999997615814209
      ],
      "min": [
        -0.9999616146087646,
        -0.9999589920043945,
        -0.9995638728141785
      ],
      "type": "VEC3"
    },
    {
      "bufferView": 3,
      "byteOffset": 3145536,
      "componentType": 5126,
      "count": 65532,
      "max": [
        0.8745098114013672,
        0.8078431487083435,
        0.7411764860153198,
        1.0
      ],
      "min": [
        0.027450980618596077,
        0.019607843831181526,
        0.0117647061124444,
        1.0
      ],
      "type": "VEC4"
    },
    {
      "bufferView": 1,
      "byteOffset": 1572768,
      "componentType": 5126,
      "count": 65532,
      "max": [
        0.9979720115661621,
        0.9877989888191223
      ],
      "min": [
        0.02013999968767166,
        0.009421000257134438
      ],
      "type": "VEC2"
    },
    {
      "bufferView": 0,
      "byteOffset": 4058196,
      "componentType": 5125,
      "count": 345846,
      "type": "SCALAR"
    },
    {
      "bufferView": 2,
      "byteOffset": 6291072,
      "componentType": 5126,
      "count": 65532,
      "max": [
        3.5655629634857178,
        7.523981094360352,
        2.0255560874938965
      ],
      "min": [
        -1.4016449451446533,
        4.426384925842285,
        -1.529468059539795
      ],
      "type": "VEC3"
    },
    {
      "bufferView": 2,
      "byteOffset": 7077456,
      "componentType": 5126,
      "count": 65532,
      "max": [
        0.9998663663864136,
        0.9998144507408142,
        0.9999852180480957
      ],
      "min": [
        -0.9999915361404419,
        -0.999995231628418,
        -0.9998522400856018
      ],
      "type": "VEC3"
    },
    {
      "bufferView": 3,
      "byteOffset": 4194048,
      "componentType": 5126,
      "count": 65532,
      "max": [
        0.8745098114013672,
        0.8352941274642944,
        0.7882353067398071,
        1.0
      ],
      "min": [
        0.003921568859368563,
        0.0,
        0.0,
        1.0
      ],
      "type": "VEC4"
    },
    {
      "bufferView": 1,
      "byteOffset": 2097024,
      "componentType": 5126,
      "count": 65532,
      "max": [
        0.9969000220298767,
        0.9999079704284668
      ],
      "min": [
        0.0011500000255182385,
        3.999999989900971e-06
      ],
      "type": "VEC2"
    },
    {
      "bufferView": 0,
      "byteOffset": 5441580,
      "componentType": 5125,
      "count": 336366,
      "type": "SCALAR"
    },
    {
      "bufferView": 2,
      "byteOffset": 7863840,
      "componentType": 5126,
      "count": 25388,
      "max": [
        3.569688081741333,
        7.308104038238525,
        2.058645009994507
      ],
      "min": [
        -1.4552240371704102,
        4.352809906005859,
        -1.480059027671814
      ],
      "type": "VEC3"
    },
    {
      "bufferView": 2,
      "byteOffset": 8168496,
      "componentType": 5126,
      "count": 25388,
      "max": [
        0.9999687671661377,
        0.996281623840332,
        0.9999930262565613
      ],
      "min": [
        -0.999988853931427,
        -0.9983823299407959,
        -0.999987006187439
      ],
      "type": "VEC3"
    },
    {
      "bufferView": 3,
      "byteOffset": 5242560,
      "componentType": 5126,
      "count": 25388,
      "max": [
        0.8980392217636108,
        0.8627451062202454,
        0.8039215803146362,
        1.0
      ],
      "min": [
        0.0,
        0.0,
        0.0,
        1.0
      ],
      "type": "VEC4"
    },
    {
      "bufferView": 1,
      "byteOffset": 2621280,
      "componentType": 5126,
      "count": 25388,
      "max": [
        0.9974589943885803,
        0.9999719858169556
      ],
      "min": [
        7.000000096013537e-06,
        6.000000212225132e-06
      ],
      "type": "VEC2"
    },
    {
      "bufferView": 0,
      "byteOffset": 6787044,
      "componentType": 5125,
      "count": 96627,
      "type": "SCALAR"
    }
  ],
  "asset": {
    "extras": {
      "author": "danielpett (https://sketchfab.com/danielpett)",
      "license": "CC-BY-4.0 (http://creativecommons.org/licenses/by/4.0/)",
      "source": "https://sketchfab.com/3d-models/alexander-the-great-4d75a7070f3f4cde83368b24592ac435",
      "title": "Alexander the Great"
    },
    "generator": "Sketchfab-17.8.0",
    "version": "2.0"
  },
  "bufferViews": [
    {
      "buffer": 0,
      "byteLength": 7173552,
      "name": "floatBufferViews",
      "target": 34963
    },
    {
      "buffer": 0,
      "byteLength": 2824384,
      "byteOffset": 7173552,
      "byteStride": 8,
      "name": "floatBufferViews",
      "target": 34962
    },
    {
      "buffer": 0,
      "byteLength": 8473152,
      "byteOffset": 9997936,
      "byteStride": 12,
      "name": "floatBufferViews",
      "target": 34962
    },
    {
      "buffer": 0,
      "byteLength": 5648768,
      "byteOffset": 18471088,
      "byteStride": 16,
      "name": "floatBufferViews",
      "target": 34962
    }
  ],
  "buffers": [
    {
      "byteLength": 24119856,
      "uri": "scene.bin"
    }
  ],
  "images": [
    {
      "uri": "textures/alexander.1001_baseColor.jpeg"
    }
  ],
  "materials": [
    {
      "doubleSided": true,
      "name": "alexander.1001",
      "pbrMetallicRoughness": {
        "baseColorTexture": {
          "index": 0
        },
        "metallicFactor": 0.0
      }
    }
  ],
  "meshes": [
    {
      "name": "Object_0",
      "primitives": [
        {
          "attributes": {
            "COLOR_0": 2,
            "NORMAL": 1,
            "POSITION": 0,
            "TEXCOORD_0": 3
          },
          "indices": 4,
          "material": 0,
          "mode": 4
        }
      ]
    },
    {
      "name": "Object_1",
      "primitives": [
        {
          "attributes": {
            "COLOR_0": 7,
            "NORMAL": 6,
            "POSITION": 5,
            "TEXCOORD_0": 8
          },
          "indices": 9,
          "material": 0,
          "mode": 4
        }
      ]
    },
    {
      "name": "Object_2",
      "primitives": [
        {
          "attributes": {
            "COLOR_0": 12,
            "NORMAL": 11,
            "POSITION": 10,
            "TEXCOORD_0": 13
          },
          "indices": 14,
          "material": 0,
          "mode": 4
        }
      ]
    },
    {
      "name": "Object_3",
      "primitives": [
        {
          "attributes": {
            "COLOR_0": 17,
            "NORMAL": 16,
            "POSITION": 15,
            "TEXCOORD_0": 18
          },
          "indices": 19,
          "material": 0,
          "mode": 4
        }
      ]
    },
    {
      "name": "Object_4",
      "primitives": [
        {
          "attributes": {
            "COLOR_0": 22,
            "NORMAL": 21,
            "POSITION": 20,
            "TEXCOORD_0": 23
          },
          "indices": 24,
          "material": 0,
          "mode": 4
        }
      ]
    },
    {
      "name": "Object_5",
      "primitives": [
        {
          "attributes": {
            "COLOR_0": 27,
            "NORMAL": 26,
            "POSITION": 25,
            "TEXCOORD_0": 28
          },
          "indices": 29,
          "material": 0,
          "mode": 4
        }
      ]
    }
  ],
  "nodes": [
    {
      "children": [
        1
      ],
      "matrix": [
        0.0,
        -1.0,
        2.220446049250313e-16,
        0.0,
        -1.0,
        2.2204460492503136e-16,
        -2.2204460492503126e-16,
        0.0,
        0.0,
        0.0,
        -1.0,
        0.0,
        0.0,
        0.0,
        0.0,
        1.0
      ],
      "name": "Sketchfab_model"
    },
    {
      "children": [
        2,
        3,
        4,
        5,
        6,
        7
      ],
      "name": "alexander.obj.cleaner.materialmerger.gles"
    },
    {
      "mesh": 0,
      "name": "Object_2"
    },
    {
      "mesh": 1,
      "name": "Object_3"
    },
    {
      "mesh": 2,
      "name": "Object_4"
    },
    {
      "mesh": 3,
      "name": "Object_5"
    },
    {
      "mesh": 4,
      "name": "Object_6"
    },
    {
      "mesh": 5,
      "name": "Object_7"
    }
  ],
  "samplers": [
    {
      "magFilter": 9729,
      "minFilter": 9987,
      "wrapS": 10497,
      "wrapT": 10497
    }
  ],
  "scene": 0,
  "scenes": [
    {
      "name": "Sketchfab_Scene",
      "nodes": [
        0
      ]
    }
  ],
  "textures": [
    {
      "sampler": 0,
      "source": 0
    }
  ]
}
