{
  "accessors": [
    {
      "bufferView": 2,
      "componentType": 5126,
      "count": 65532,
      "max": [
        -0.07526999711990356,
        0.03294999897480011,
        0.4186899960041046
      ],
      "min": [
        -0.27309998869895935,
        -0.16102999448776245,
        0.26958999037742615
      ],
      "type": "VEC3"
    },
    {
      "bufferView": 2,
      "byteOffset": 786384,
      "componentType": 5126,
      "count": 65532,
      "max": [
        0.9998876452445984,
        1.0,
        1.0
      ],
      "min": [
        -0.9999999403953552,
        -0.9997451901435852,
        -0.9799306988716125
      ],
      "type": "VEC3"
    },
    {
      "bufferView": 1,
      "componentType": 5126,
      "count": 65532,
      "max": [
        0.9977480173110962,
        0.9979150295257568
      ],
      "min": [
        0.0020890000741928816,
        0.21643200516700745
      ],
      "type": "VEC2"
    },
    {
      "bufferView": 0,
      "componentType": 5125,
      "count": 364308,
      "type": "SCALAR"
    },
    {
      "bufferView": 2,
      "byteOffset": 1572768,
      "componentType": 5126,
      "count": 24890,
      "max": [
        -0.07641000300645828,
        0.032930001616477966,
        0.41874000430107117
      ],
      "min": [
        -0.26945000886917114,
        -0.1633100062608719,
        0.26958999037742615
      ],
      "type": "VEC3"
    },
    {
      "bufferView": 2,
      "byteOffset": 1871448,
      "componentType": 5126,
      "count": 24890,
      "max": [
        0.9998912215232849,
        0.9987421035766602,
        1.0
      ],
      "min": [
        -0.9996743202209473,
        -0.9999117255210876,
        -0.946492612361908
      ],
      "type": "VEC3"
    },
    {
      "bufferView": 1,
      "byteOffset": 524256,
      "componentType": 5126,
      "count": 24890,
      "max": [
        0.9926779866218567,
        0.8654369711875916
      ],
      "min": [
        0.002093000104650855,
        0.26355400681495667
      ],
      "type": "VEC2"
    },
    {
      "bufferView": 0,
      "byteOffset": 1457232,
      "componentType": 5125,
      "count": 138342,
      "type": "SCALAR"
    }
  ],
  "asset": {
    "extras": {
      "author": "khmer_archaeology (https://sketchfab.com/khmer_archaeology)",
      "license": "CC-BY-NC-SA-4.0 (http://creativecommons.org/licenses/by-nc-sa/4.0/)",
      "source": "https://sketchfab.com/3d-models/banteay-meanchey-museum-collection1-50899226431240089c50841f281e72ea",
      "title": "Banteay Meanchey Museum Collection1"
    },
    "generator": "Sketchfab-16.51.0",
    "version": "2.0"
  },
  "bufferViews": [
    {
      "buffer": 0,
      "byteLength": 2010600,
      "name": "floatBufferViews",
      "target": 34963
    },
    {
      "buffer": 0,
      "byteLength": 723376,
      "byteOffset": 2010600,
      "byteStride": 8,
      "name": "floatBufferViews",
      "target": 34962
    },
    {
      "buffer": 0,
      "byteLength": 2170128,
      "byteOffset": 2733976,
      "byteStride": 12,
      "name": "floatBufferViews",
      "target": 34962
    }
  ],
  "buffers": [
    {
      "byteLength": 4904104,
      "uri": "scene.bin"
    }
  ],
  "extensionsUsed": [
    "KHR_materials_unlit"
  ],
  "images": [
    {
      "uri": "textures/main_baseColor.jpeg"
    }
  ],
  "materials": [
    {
      "doubleSided": true,
      "extensions": {
        "KHR_materials_unlit": {}
      },
      "name": "main",
      "pbrMetallicRoughness": {
        "baseColorTexture": {
          "index": 0
        },
        "metallicFactor": 0.0
      }
    }
  ],
  "meshes": [
    {
      "name": "Object_0",
      "primitives": [
        {
          "attributes": {
            "NORMAL": 1,
            "POSITION": 0,
            "TEXCOORD_0": 2
          },
          "indices": 3,
          "material": 0,
          "mode": 4
        }
      ]
    },
    {
      "name": "Object_1",
      "primitives": [
        {
          "attributes": {
            "NORMAL": 5,
            "POSITION": 4,
            "TEXCOORD_0": 6
          },
          "indices": 7,
          "material": 0,
          "mode": 4
        }
      ]
    }
  ],
  "nodes": [
    {
      "children": [
        1
      ],
      "matrix": [
        1.0,
        0.0,
        0.0,
        0.0,
        0.0,
        2.220446049250313e-16,
        -1.0,
        0.0,
        0.0,
        1.0,
        2.220446049250313e-16,
        0.0,
        0.0,
        0.0,
        0.0,
        1.0
      ],
      "name": "Sketchfab_model"
    },
    {
      "children": [
        2,
        3
      ],
      "name": "Scaniverse.obj.cleaner.materialmerger.gles"
    },
    {
      "mesh": 0,
      "name": "Object_2"
    },
    {
      "mesh": 1,
      "name": "Object_3"
    }
  ],
  "samplers": [
    {
      "magFilter": 9729,
      "minFilter": 9987,
      "wrapS": 10497,
      "wrapT": 10497
    }
  ],
  "scene": 0,
  "scenes": [
    {
      "name": "Sketchfab_Scene",
      "nodes": [
        0
      ]
    }
  ],
  "textures": [
    {
      "sampler": 0,
      "source": 0
    }
  ]
}
